{
	"asset":{
		"generator":"Khronos glTF Blender I/O v3.5.30",
		"version":"2.0"
	},
	"scene":0,
	"scenes":[
		{
			"name":"Scene",
			"nodes":[
				0,
				1
			]
		}
	],
	"nodes":[
		{
			"mesh":0,
			"name":"Donut"
		},
		{
			"mesh":1,
			"name":"Icing"
		}
	],
	"materials":[
		{
			"doubleSided":true,
			"name":"Material.002",
			"pbrMetallicRoughness":{
				"baseColorFactor":[
					0.9564114212989807,
					0.6477423310279846,
					0.4063396453857422,
					1
				],
				"metallicFactor":0
			}
		},
		{
			"doubleSided":true,
			"name":"Material.001",
			"pbrMetallicRoughness":{
				"baseColorFactor":[
					0.8000000715255737,
					0.291793555021286,
					0.3458312749862671,
					1
				],
				"metallicFactor":0,
				"roughnessFactor":0.29888269305229187
			}
		}
	],
	"meshes":[
		{
			"name":"Torus.002",
			"primitives":[
				{
					"attributes":{
						"POSITION":0,
						"TEXCOORD_0":1,
						"NORMAL":2
					},
					"indices":3,
					"material":0
				}
			]
		},
		{
			"name":"Torus.003",
			"primitives":[
				{
					"attributes":{
						"POSITION":4,
						"TEXCOORD_0":5,
						"NORMAL":6
					},
					"indices":7,
					"material":1
				}
			]
		}
	],
	"accessors":[
		{
			"bufferView":0,
			"componentType":5126,
			"count":15633,
			"max":[
				0.05252174660563469,
				0.02049616165459156,
				0.05179547518491745
			],
			"min":[
				-0.04328182712197304,
				-0.019146377220749855,
				-0.043688684701919556
			],
			"type":"VEC3"
		},
		{
			"bufferView":1,
			"componentType":5126,
			"count":15633,
			"type":"VEC2"
		},
		{
			"bufferView":2,
			"componentType":5126,
			"count":15633,
			"type":"VEC3"
		},
		{
			"bufferView":3,
			"componentType":5123,
			"count":92160,
			"type":"SCALAR"
		},
		{
			"bufferView":4,
			"componentType":5126,
			"count":16410,
			"max":[
				0.05126922205090523,
				0.02345208451151848,
				0.05408431962132454
			],
			"min":[
				-0.04740969091653824,
				-0.007013642229139805,
				-0.04535205289721489
			],
			"type":"VEC3"
		},
		{
			"bufferView":5,
			"componentType":5126,
			"count":16410,
			"type":"VEC2"
		},
		{
			"bufferView":6,
			"componentType":5126,
			"count":16410,
			"type":"VEC3"
		},
		{
			"bufferView":7,
			"componentType":5123,
			"count":95760,
			"type":"SCALAR"
		}
	],
	"bufferViews":[
		{
			"buffer":0,
			"byteLength":187596,
			"byteOffset":0,
			"target":34962
		},
		{
			"buffer":0,
			"byteLength":125064,
			"byteOffset":187596,
			"target":34962
		},
		{
			"buffer":0,
			"byteLength":187596,
			"byteOffset":312660,
			"target":34962
		},
		{
			"buffer":0,
			"byteLength":184320,
			"byteOffset":500256,
			"target":34963
		},
		{
			"buffer":0,
			"byteLength":196920,
			"byteOffset":684576,
			"target":34962
		},
		{
			"buffer":0,
			"byteLength":131280,
			"byteOffset":881496,
			"target":34962
		},
		{
			"buffer":0,
			"byteLength":196920,
			"byteOffset":1012776,
			"target":34962
		},
		{
			"buffer":0,
			"byteLength":191520,
			"byteOffset":1209696,
			"target":34963
		}
	],
	"buffers":[
		{
			"byteLength":1401216,
			"uri":"data:application/octet-stream;base64,"
		}
	]
}
